<?xml version="1.0" encoding="UTF-8"?>
<!DOCTYPE svg PUBLIC "-//W3C//DTD SVG 1.1//EN" "http://www.w3.org/Graphics/SVG/1.1/DTD/svg11.dtd">
<svg xmlns="http://www.w3.org/2000/svg" version="1.1" width="249px" height="104px" style="shape-rendering:geometricPrecision; text-rendering:geometricPrecision; image-rendering:optimizeQuality; fill-rule:evenodd; clip-rule:evenodd" xmlns:xlink="http://www.w3.org/1999/xlink">
<g><path style="opacity:1" fill="#4c7127" d="M 136.5,13.5 C 135.711,12.085 135.044,10.585 134.5,9C 135.675,6.31634 137.508,4.14968 140,2.5C 141.947,7.15773 140.781,10.8244 136.5,13.5 Z"/></g>
<g><path style="opacity:0.996" fill="#82ad2d" d="M 134.5,15.5 C 133.833,15.5 133.5,15.8333 133.5,16.5C 132.211,17.5009 130.878,17.3342 129.5,16C 127.516,13.8655 126.182,11.3655 125.5,8.5C 131.053,7.37475 134.053,9.70808 134.5,15.5 Z"/></g>
<g><path style="opacity:1" fill="#547e2a" d="M 149.5,8.5 C 154.855,9.3264 156.521,12.1597 154.5,17C 153.004,17.5074 151.837,17.0074 151,15.5C 149.798,13.3225 149.298,10.9892 149.5,8.5 Z"/></g>
<g><path style="opacity:0.998" fill="#527b2a" d="M 157.5,19.5 C 157.298,17.0108 157.798,14.6775 159,12.5C 167.263,7.9557 168.763,9.9557 163.5,18.5C 161.719,20.5463 159.719,20.8796 157.5,19.5 Z"/></g>
<g><path style="opacity:1" fill="#81ac2c" d="M 110.5,9.5 C 113.277,12.9778 114.11,16.9778 113,21.5C 109.246,25.7187 107.08,24.8853 106.5,19C 106.968,15.4166 108.302,12.25 110.5,9.5 Z"/></g>
<g><path style="opacity:0.012" fill="#000200" d="M 115.5,14.5 C 114.833,13.1667 114.833,13.1667 115.5,14.5 Z"/></g>
<g><path style="opacity:1" fill="#507829" d="M 126.5,20.5 C 120.716,22.4408 117.05,20.4408 115.5,14.5C 122.349,11.7851 126.016,13.7851 126.5,20.5 Z"/></g>
<g><path style="opacity:0.999" fill="#7ba42b" d="M 136.5,17.5 C 137.167,17.5 137.5,17.1667 137.5,16.5C 138.833,16.1667 138.833,15.8333 137.5,15.5C 137.611,14.8826 137.944,14.3826 138.5,14C 140.5,13.3333 142.5,13.3333 144.5,14C 145.878,15.7134 147.545,17.0467 149.5,18C 147.29,19.7391 144.79,20.9057 142,21.5C 139.495,21.0057 137.661,19.6723 136.5,17.5 Z"/></g>
<g><path style="opacity:0.999" fill="#502928" d="M 136.5,13.5 C 136.328,14.4916 136.662,15.1583 137.5,15.5C 137.5,15.8333 137.5,16.1667 137.5,16.5C 137.5,17.1667 137.167,17.5 136.5,17.5C 135.631,20.0802 134.964,23.4135 134.5,27.5C 135.384,30.9349 136.551,34.2682 138,37.5C 140.168,33.4531 142.334,29.4531 144.5,25.5C 145.405,26.7024 145.405,28.0357 144.5,29.5C 142.837,31.4385 142.171,33.7718 142.5,36.5C 141.167,36.8333 141.167,37.1667 142.5,37.5C 143.405,38.7024 143.405,40.0357 142.5,41.5C 141.778,41.0825 141.278,40.4158 141,39.5C 139.471,42.8207 139.638,46.154 141.5,49.5C 147.042,44.0881 151.876,38.0881 156,31.5C 156.767,27.4425 156.6,23.4425 155.5,19.5C 155.97,18.537 156.637,18.537 157.5,19.5C 158.603,24.8323 158.769,30.1656 158,35.5C 161.744,34.374 165.577,34.2073 169.5,35C 170.942,35.3768 171.942,36.2101 172.5,37.5C 163.836,35.4534 156.67,37.7868 151,44.5C 150.383,45.4491 150.549,46.2825 151.5,47C 155.276,48.9474 158.61,51.4474 161.5,54.5C 161.44,55.0431 161.107,55.3764 160.5,55.5C 156.744,51.7057 152.244,49.3723 147,48.5C 142.747,53.0066 140.08,58.3399 139,64.5C 138.191,70.7489 138.358,76.9156 139.5,83C 136.854,83.4974 134.187,83.6641 131.5,83.5C 131.868,75.3557 133.201,67.3557 135.5,59.5C 135.66,57.6455 134.993,56.3121 133.5,55.5C 131.683,50.857 129.183,50.857 126,55.5C 126.216,52.9848 126.883,50.6515 128,48.5C 125.414,46.4552 122.58,44.7885 119.5,43.5C 116.705,46.4012 113.372,47.9012 109.5,48C 110.942,47.6232 111.942,46.7899 112.5,45.5C 113.167,45.5 113.5,45.1667 113.5,44.5C 115.121,44.2131 116.121,43.2131 116.5,41.5C 114.815,39.4293 113.148,37.4293 111.5,35.5C 110.737,32.8589 110.57,30.1922 111,27.5C 111.232,28.7375 111.732,29.7375 112.5,30.5C 112.5,31.1667 112.833,31.5 113.5,31.5C 114.348,34.8875 116.348,37.2209 119.5,38.5C 119.5,39.1667 119.833,39.5 120.5,39.5C 123.773,42.1442 127.44,44.3109 131.5,46C 133.452,48.0739 135.285,50.2406 137,52.5C 137.312,47.7313 136.645,43.0646 135,38.5C 132.181,36.3314 129.014,34.8314 125.5,34C 127.833,33.6667 130.167,33.3333 132.5,33C 130.617,28.7352 128.617,24.5685 126.5,20.5C 128.836,22.0038 130.669,24.0038 132,26.5C 132.711,23.266 133.545,20.0994 134.5,17C 134.272,16.6012 133.938,16.4346 133.5,16.5C 133.5,15.8333 133.833,15.5 134.5,15.5C 135.167,14.8333 135.833,14.1667 136.5,13.5 Z"/></g>
<g><path style="opacity:1" fill="#7faa2b" d="M 171.5,20.5 C 172.239,20.369 172.906,20.5357 173.5,21C 171.996,24.3441 169.996,27.3441 167.5,30C 165.553,30.9913 163.553,31.3247 161.5,31C 160.869,28.6877 160.869,26.1877 161.5,23.5C 164.759,22.0203 168.092,21.0203 171.5,20.5 Z"/></g>
<g><path style="opacity:1" fill="#486b25" d="M 139.5,22.5 C 141.995,25.2843 141.495,27.951 138,30.5C 137.009,29.5704 136.509,28.4038 136.5,27C 137.008,25.1074 138.008,23.6074 139.5,22.5 Z"/></g>
<g><path style="opacity:1" fill="#547d2a" d="M 144.5,29.5 C 145.405,28.0357 145.405,26.7024 144.5,25.5C 145.312,24.0069 146.645,23.3402 148.5,23.5C 151.827,24.6355 151.827,26.4688 148.5,29C 147.207,29.49 145.873,29.6567 144.5,29.5 Z"/></g>
<g><path style="opacity:0.999" fill="#527a2a" d="M 101.5,23.5 C 106.146,23.6525 108.479,25.8191 108.5,30C 103.441,32.5534 99.4411,31.3867 96.5,26.5C 98.1446,25.3037 99.8113,24.3037 101.5,23.5 Z"/></g>
<g><path style="opacity:0.992" fill="#5e8d2f" d="M 116.5,26.5 C 116.5,27.1667 116.5,27.8333 116.5,28.5C 116.573,30.0269 115.906,31.0269 114.5,31.5C 114.657,30.1266 114.49,28.7932 114,27.5C 113.722,28.4158 113.222,29.0825 112.5,29.5C 112.585,27.0712 113.585,25.0712 115.5,23.5C 116.386,24.325 116.719,25.325 116.5,26.5 Z"/></g>
<g><path style="opacity:0.013" fill="#020301" d="M 116.5,26.5 C 117.5,26.5 118.5,26.5 119.5,26.5C 119.5,27.1667 119.167,27.5 118.5,27.5C 117.833,27.8333 117.167,28.1667 116.5,28.5C 116.5,27.8333 116.5,27.1667 116.5,26.5 Z"/></g>
<g><path style="opacity:1" fill="#557f2a" d="M 118.5,27.5 C 119.167,27.5 119.5,27.1667 119.5,26.5C 122.191,24.4968 124.691,24.4968 127,26.5C 128.167,30.6667 126.667,32.1667 122.5,31C 120.676,30.34 119.343,29.1733 118.5,27.5 Z"/></g>
<g><path style="opacity:0.259" fill="#18200c" d="M 114.5,31.5 C 114.167,31.5 113.833,31.5 113.5,31.5C 112.833,31.5 112.5,31.1667 112.5,30.5C 112.5,30.1667 112.5,29.8333 112.5,29.5C 113.222,29.0825 113.722,28.4158 114,27.5C 114.49,28.7932 114.657,30.1266 114.5,31.5 Z"/></g>
<g><path style="opacity:0.994" fill="#557f2b" d="M 120.5,39.5 C 119.833,39.5 119.5,39.1667 119.5,38.5C 119.128,35.9783 119.961,33.9783 122,32.5C 123.926,35.3253 123.426,37.6587 120.5,39.5 Z"/></g>
<g><path style="opacity:0.997" fill="#83af2d" d="M 110.5,35.5 C 109.761,35.369 109.094,35.5357 108.5,36C 109.416,36.2784 110.082,36.7784 110.5,37.5C 106.605,40.3016 102.939,39.8016 99.5,36C 101.71,34.2609 104.21,33.0943 107,32.5C 108.95,32.7074 110.116,33.7074 110.5,35.5 Z"/></g>
<g><path style="opacity:0.392" fill="#364715" d="M 110.5,35.5 C 110.833,35.5 111.167,35.5 111.5,35.5C 111.672,36.4916 111.338,37.1583 110.5,37.5C 110.082,36.7784 109.416,36.2784 108.5,36C 109.094,35.5357 109.761,35.369 110.5,35.5 Z"/></g>
<g><path style="opacity:0.997" fill="#7aa22a" d="M 142.5,41.5 C 143.405,40.0357 143.405,38.7024 142.5,37.5C 142.5,37.1667 142.5,36.8333 142.5,36.5C 144.717,35.6314 147.05,35.298 149.5,35.5C 149.027,39.6383 146.693,41.6383 142.5,41.5 Z"/></g>
<g><path style="opacity:0.012" fill="#000000" d="M 172.5,37.5 C 173.833,38.1667 173.833,38.1667 172.5,37.5 Z"/></g>
<g><path style="opacity:1" fill="#6a8c27" d="M 133.5,40.5 C 132.884,41.2022 132.884,42.2022 133.5,43.5C 130.983,44.2472 128.983,43.2472 127.5,40.5C 129.538,37.8477 131.538,37.8477 133.5,40.5 Z"/></g>
<g><path style="opacity:0.995" fill="#4f7628" d="M 167.5,38.5 C 170.226,38.2639 172.559,39.0972 174.5,41C 169.072,46.3695 166.739,45.5362 167.5,38.5 Z"/></g>
<g><path style="opacity:0.171" fill="#1b2409" d="M 133.5,40.5 C 134.833,41.5 134.833,42.5 133.5,43.5C 132.884,42.2022 132.884,41.2022 133.5,40.5 Z"/></g>
<g><path style="opacity:0.997" fill="#56812b" d="M 113.5,44.5 C 112.833,44.5 112.5,44.8333 112.5,45.5C 110.25,45.8186 108.25,45.3186 106.5,44C 109.375,40.4892 111.709,40.6559 113.5,44.5 Z"/></g>
<g><path style="opacity:0.994" fill="#78a02a" d="M 155.5,41.5 C 159.164,40.9999 162.164,42.1666 164.5,45C 161.119,49.1014 157.452,49.4347 153.5,46C 153.164,44.371 153.83,42.871 155.5,41.5 Z"/></g>
<g><path style="opacity:0.998" fill="#7ba42a" d="M 117.5,46.5 C 122.985,46.1627 124.318,48.1627 121.5,52.5C 111.563,55.5648 110.229,53.5648 117.5,46.5 Z"/></g>
<g><path style="opacity:1" fill="#7da62b" d="M 104.5,47.5 C 109.555,48.7198 110.221,50.8865 106.5,54C 104.167,54.6667 101.833,54.6667 99.5,54C 101.054,51.7131 102.721,49.5465 104.5,47.5 Z"/></g>
<g><path style="opacity:0.38" fill="#354613" d="M 162.5,49.5 C 162.611,50.1174 162.944,50.6174 163.5,51C 162.584,51.2784 161.918,51.7784 161.5,52.5C 160.285,51.221 160.618,50.221 162.5,49.5 Z"/></g>
<g><path style="opacity:0.998" fill="#8bba2e" d="M 162.5,49.5 C 166.155,49.4722 168.822,51.1389 170.5,54.5C 167.463,55.7412 164.463,55.7412 161.5,54.5C 161.5,53.8333 161.5,53.1667 161.5,52.5C 161.918,51.7784 162.584,51.2784 163.5,51C 162.944,50.6174 162.611,50.1174 162.5,49.5 Z"/></g>
<g><path style="opacity:0.999" fill="#517929" d="M 146.5,51.5 C 150.159,52.3146 152.826,54.4813 154.5,58C 150.101,60.4218 146.768,59.4218 144.5,55C 144.978,53.6974 145.645,52.5307 146.5,51.5 Z"/></g>
<g><path style="opacity:0.999" fill="#537c2b" d="M 120.5,54.5 C 124.109,55.1822 124.775,56.6822 122.5,59C 115.311,60.36 114.644,58.86 120.5,54.5 Z"/></g>
<g><path style="opacity:0.997" fill="#779e2a" d="M 133.5,55.5 C 133.037,59.8026 130.704,61.6359 126.5,61C 127.5,59.3333 128.5,57.6667 129.5,56C 130.793,55.51 132.127,55.3433 133.5,55.5 Z"/></g>
<g><path style="opacity:0.431" fill="#696969" d="M 14.5,64.5 C 17.1667,63.1667 19.8333,63.1667 22.5,64.5C 21.1266,64.3433 19.7932,64.51 18.5,65C 19.4158,65.2784 20.0825,65.7784 20.5,66.5C 19.1667,66.5 17.8333,66.5 16.5,66.5C 16.5,65.1667 15.8333,64.5 14.5,64.5 Z"/></g>
<g><path style="opacity:1" fill="#ebebeb" d="M 14.5,64.5 C 15.8333,64.5 16.5,65.1667 16.5,66.5C 15.1667,72.1667 15.1667,77.8333 16.5,83.5C 16.5,84.8333 15.8333,85.5 14.5,85.5C 9.87393,83.8599 7.5406,80.5265 7.5,75.5C 7.10515,69.9674 9.43848,66.3007 14.5,64.5 Z"/></g>
<g><path style="opacity:1" fill="#e4e4e4" d="M 22.5,64.5 C 23.5,64.5 24.5,64.5 25.5,64.5C 25.9907,72.848 24.3241,73.5147 20.5,66.5C 20.0825,65.7784 19.4158,65.2784 18.5,65C 19.7932,64.51 21.1266,64.3433 22.5,64.5 Z"/></g>
<g><path style="opacity:1" fill="#e6e6e6" d="M 27.5,64.5 C 31.226,64.1774 34.8927,64.5108 38.5,65.5C 37.2435,72.4865 37.2435,79.4865 38.5,86.5C 35.4121,86.6227 32.7454,85.6227 30.5,83.5C 30.0659,77.0102 29.0659,70.6769 27.5,64.5 Z"/></g>
<g><path style="opacity:1" fill="#d4d4d4" d="M 40.5,65.5 C 43.0241,64.1997 45.6908,64.1997 48.5,65.5C 47.7579,66.2868 46.9246,66.9535 46,67.5C 45.6667,72.8333 45.3333,78.1667 45,83.5C 43.2759,85.845 41.4426,86.345 39.5,85C 42.8905,82.1665 44.2239,78.4998 43.5,74C 43.3333,71.8333 43.1667,69.6667 43,67.5C 42.2917,66.6195 41.4584,65.9528 40.5,65.5 Z"/></g>
<g><path style="opacity:1" fill="#e9e9e9" d="M 49.5,64.5 C 53.226,64.1774 56.8927,64.5108 60.5,65.5C 59.1667,71.8333 59.1667,78.1667 60.5,84.5C 56.8333,85.8333 53.1667,85.8333 49.5,84.5C 50.7385,81.5306 51.4052,78.364 51.5,75C 51.3279,71.3184 50.6613,67.8184 49.5,64.5 Z"/></g>
<g><path style="opacity:1" fill="#fafafa" d="M 62.5,64.5 C 65.5,64.5 68.5,64.5 71.5,64.5C 71.5,71.5 71.5,78.5 71.5,85.5C 68.4281,85.8174 65.4281,85.4841 62.5,84.5C 63.7385,81.5306 64.4052,78.364 64.5,75C 64.3279,71.3184 63.6613,67.8184 62.5,64.5 Z"/></g>
<g><path style="opacity:1" fill="#e0e0e0" d="M 72.5,64.5 C 78.9975,64.8331 82.3308,68.3331 82.5,75C 82.343,82.0019 79.0096,85.1686 72.5,84.5C 74.0707,81.6075 74.7374,78.4408 74.5,75C 74.6939,71.2401 74.0273,67.7401 72.5,64.5 Z"/></g>
<g><path style="opacity:1" fill="#eaeaea" d="M 83.5,64.5 C 86.5,64.5 89.5,64.5 92.5,64.5C 92.5,71.5 92.5,78.5 92.5,85.5C 89.4281,85.8174 86.4281,85.4841 83.5,84.5C 84.7942,77.8339 84.7942,71.1672 83.5,64.5 Z"/></g>
<g><path style="opacity:1" fill="#ededed" d="M 102.5,64.5 C 105.5,64.5 108.5,64.5 111.5,64.5C 111.5,71.5 111.5,78.5 111.5,85.5C 108.428,85.8174 105.428,85.4841 102.5,84.5C 103.794,77.8339 103.794,71.1672 102.5,64.5 Z"/></g>
<g><path style="opacity:0.694" fill="#bebebe" d="M 152.5,64.5 C 152.823,71.0221 152.49,77.3554 151.5,83.5C 151.666,77.8236 151.499,72.1569 151,66.5C 147.597,73.3242 146.097,72.6575 146.5,64.5C 148.5,64.5 150.5,64.5 152.5,64.5 Z"/></g>
<g><path style="opacity:1" fill="#f2f2f2" d="M 152.5,64.5 C 156.5,64.5 160.5,64.5 164.5,64.5C 164.903,72.6575 163.403,73.3242 160,66.5C 159.833,69.3333 159.667,72.1667 159.5,75C 159.595,78.364 160.262,81.5306 161.5,84.5C 157.5,85.8333 153.5,85.8333 149.5,84.5C 149.957,83.7025 150.624,83.3691 151.5,83.5C 152.49,77.3554 152.823,71.0221 152.5,64.5 Z"/></g>
<g><path style="opacity:1" fill="#eaeaea" d="M 174.5,64.5 C 174.177,71.0221 174.51,77.3554 175.5,83.5C 177.845,81.643 178.178,79.3096 176.5,76.5C 176.557,75.391 176.89,74.391 177.5,73.5C 177.702,71.0504 177.369,68.717 176.5,66.5C 176.5,65.8333 176.5,65.1667 176.5,64.5C 181.093,63.4183 184.093,65.085 185.5,69.5C 184.966,71.6145 183.966,73.4478 182.5,75C 183.643,77.4254 184.976,79.5921 186.5,81.5C 186.5,82.5 186.5,83.5 186.5,84.5C 179.7,85.3003 172.7,85.3003 165.5,84.5C 166.738,81.5306 167.405,78.364 167.5,75C 167.405,71.636 166.738,68.4694 165.5,65.5C 168.428,64.5159 171.428,64.1826 174.5,64.5 Z M 176.5,66.5 C 177.369,68.717 177.702,71.0504 177.5,73.5C 176.275,72.8478 175.608,71.6811 175.5,70C 175.514,68.6153 175.848,67.4486 176.5,66.5 Z M 176.5,76.5 C 178.178,79.3096 177.845,81.643 175.5,83.5C 175.198,80.9407 175.532,78.6074 176.5,76.5 Z"/></g>
<g><path style="opacity:0.431" fill="#757575" d="M 174.5,64.5 C 175.167,64.5 175.833,64.5 176.5,64.5C 176.5,65.1667 176.5,65.8333 176.5,66.5C 175.848,67.4486 175.514,68.6153 175.5,70C 175.608,71.6811 176.275,72.8478 177.5,73.5C 176.89,74.391 176.557,75.391 176.5,76.5C 175.532,78.6074 175.198,80.9407 175.5,83.5C 174.51,77.3554 174.177,71.0221 174.5,64.5 Z"/></g>
<g><path style="opacity:1" fill="#eeeeee" d="M 193.5,80.5 C 193.5,79.8333 193.5,79.1667 193.5,78.5C 194.5,78.5 195.5,78.5 196.5,78.5C 196.167,75.8333 195.833,73.1667 195.5,70.5C 195.443,69.391 195.11,68.391 194.5,67.5C 194.5,66.5 194.5,65.5 194.5,64.5C 196.924,64.1924 199.257,64.5258 201.5,65.5C 203.046,72.0315 205.046,78.3649 207.5,84.5C 203.833,85.8333 200.167,85.8333 196.5,84.5C 197.246,83.2638 197.579,81.9305 197.5,80.5C 196.167,80.5 194.833,80.5 193.5,80.5 Z"/></g>
<g><path style="opacity:1" fill="#ebebeb" d="M 208.5,64.5 C 212.182,64.3347 215.848,64.5014 219.5,65C 219,65.5 218.5,66 218,66.5C 217.833,69.3333 217.667,72.1667 217.5,75C 217.595,78.364 218.262,81.5306 219.5,84.5C 215.833,85.8333 212.167,85.8333 208.5,84.5C 209.794,77.8339 209.794,71.1672 208.5,64.5 Z"/></g>
<g><path style="opacity:1" fill="#f8f8f8" d="M 220.5,64.5 C 224.226,64.1774 227.893,64.5108 231.5,65.5C 231.192,66.3081 230.692,66.9747 230,67.5C 229.501,73.4908 229.334,79.4908 229.5,85.5C 226.428,85.8174 223.428,85.4841 220.5,84.5C 221.738,81.5306 222.405,78.364 222.5,75C 222.328,71.3184 221.661,67.8184 220.5,64.5 Z"/></g>
<g><path style="opacity:1" fill="#e0e0e0" d="M 112.5,64.5 C 118.974,64.6432 121.974,67.9766 121.5,74.5C 121.897,80.0657 119.563,83.7324 114.5,85.5C 113.833,85.1667 113.167,84.8333 112.5,84.5C 113.794,77.8339 113.794,71.1672 112.5,64.5 Z"/></g>
<g><path style="opacity:1" fill="#d8d8d8" d="M 93.5,64.5 C 95.8333,64.5 98.1667,64.5 100.5,64.5C 100.5,66.5 100.5,68.5 100.5,70.5C 99.5,70.5 98.5,70.5 97.5,70.5C 97.8134,73.2469 97.48,75.9135 96.5,78.5C 92.4707,75.0588 92.804,71.8921 97.5,69C 95.8082,67.6927 94.4749,66.1927 93.5,64.5 Z"/></g>
<g><path style="opacity:1" fill="#e1e1e1" d="M 20.5,85.5 C 19.1667,85.5 18.5,84.8333 18.5,83.5C 18.8897,80.5342 18.223,77.8676 16.5,75.5C 19.8333,74.1667 23.1667,74.1667 26.5,75.5C 25.7695,78.1092 25.2695,80.7759 25,83.5C 23.8904,85.0368 22.3904,85.7035 20.5,85.5 Z"/></g>
<g><path style="opacity:1" fill="#cfcfcf" d="M 234.5,78.5 C 235.5,78.5 236.5,78.5 237.5,78.5C 237.5,80.8333 237.5,83.1667 237.5,85.5C 235.076,85.8076 232.743,85.4742 230.5,84.5C 232.833,83.1678 234.166,81.1678 234.5,78.5 Z"/></g>
<g><path style="opacity:1" fill="#e1e1e1" d="M 98.5,78.5 C 100.344,80.2789 101.01,82.6122 100.5,85.5C 98.076,85.8076 95.7427,85.4742 93.5,84.5C 95.8835,83.1149 97.5501,81.1149 98.5,78.5 Z"/></g>
<g><path style="opacity:1" fill="#bdbdbd" d="M 194.5,67.5 C 195.11,68.391 195.443,69.391 195.5,70.5C 194.232,72.9052 193.565,75.5718 193.5,78.5C 192.167,79.1667 192.167,79.8333 193.5,80.5C 192.119,82.2741 192.452,83.7741 194.5,85C 191.633,85.8007 188.966,85.6341 186.5,84.5C 186.5,83.5 186.5,82.5 186.5,81.5C 187.222,81.9175 187.722,82.5842 188,83.5C 190.429,78.7987 192.095,73.7987 193,68.5C 193.383,67.944 193.883,67.6107 194.5,67.5 Z"/></g>
<g><path style="opacity:0.431" fill="#6f6f6f" d="M 16.5,83.5 C 17.1667,83.5 17.8333,83.5 18.5,83.5C 18.5,84.8333 19.1667,85.5 20.5,85.5C 18.5,86.8333 16.5,86.8333 14.5,85.5C 15.8333,85.5 16.5,84.8333 16.5,83.5 Z"/></g>
</svg>
